<?xml version="1.0" encoding="UTF-8"?>
<svg version="1.1" xmlns="http://www.w3.org/2000/svg" width="300" height="270">
<path d="M0 0 C1.51627986 -0.00407741 3.03255674 -0.00942578 4.54882812 -0.01593018 C8.6232651 -0.02947082 12.69747121 -0.02436069 16.77191162 -0.01479292 C21.06279054 -0.00712684 25.35365144 -0.01426102 29.64453125 -0.01895142 C36.84638977 -0.02438894 44.0481556 -0.01727027 51.25 -0.00292969 C59.54229665 0.01339296 67.83437191 0.00810302 76.12666321 -0.0084089 C83.28296282 -0.0220812 90.43919629 -0.02391552 97.59550476 -0.0160929 C101.85358298 -0.01144778 106.1115576 -0.01070339 110.36962891 -0.02070236 C114.37534806 -0.02945398 118.38078547 -0.02320293 122.38647461 -0.00601959 C123.84480322 -0.00209802 125.30315609 -0.00311311 126.76147461 -0.00980759 C144.95539214 -0.08554162 160.64945914 3.20910351 174.06640625 16.11083984 C174.80761719 16.86236328 175.54882812 17.61388672 176.3125 18.38818359 C176.96089844 19.02626953 177.60929688 19.66435547 178.27734375 20.32177734 C190.63665178 33.33015188 192.77829914 49.96164121 192.70068359 67.16162109 C192.7047596 68.6990801 192.71010719 70.23653617 192.71661377 71.77398682 C192.73017107 75.91039609 192.7250372 80.04657831 192.71547651 84.18299103 C192.70781927 88.53573669 192.71494221 92.88846442 192.71963501 97.24121094 C192.72507505 104.54739836 192.71794717 111.85349445 192.70361328 119.15966797 C192.68729015 127.57636269 192.6925799 135.99283929 192.7090925 144.40952873 C192.72275753 151.66855152 192.72460262 158.92750909 192.71677649 166.1865406 C192.71212743 170.50775852 192.71139814 174.82887431 192.72138596 179.15008545 C192.73012684 183.21488273 192.72390551 187.279402 192.70670319 191.34416962 C192.70277601 192.82549328 192.7038067 194.30684082 192.71049118 195.7881546 C192.78803857 214.73704631 188.48520122 230.11754188 175.0390625 243.75927734 C160.85724145 257.43315351 144.02505236 260.85887165 124.77026367 260.79223633 C123.25737509 260.79795434 121.74449081 260.80492406 120.23161316 260.81303406 C116.1611272 260.83082501 112.09085845 260.82982361 108.02034545 260.82409167 C104.60385952 260.82097858 101.18741406 260.8271158 97.77093393 260.83313042 C89.70068859 260.84712856 81.63054921 260.84565445 73.56030273 260.83422852 C65.27654059 260.82275834 56.99310263 260.83681519 48.70938319 260.86362499 C41.55901337 260.88588739 34.40874453 260.8923956 27.25834256 260.88654858 C23.0046148 260.88320209 18.75109458 260.88543807 14.49739647 260.90279961 C10.492445 260.91843554 6.48796798 260.91413216 2.48303413 260.89549446 C1.02715511 260.89185373 -0.42876041 260.89478219 -1.88460541 260.90538025 C-20.57845251 261.03090049 -36.70863794 256.72556379 -50.4765625 243.58740234 C-51.20617187 242.86166016 -51.93578125 242.13591797 -52.6875 241.38818359 C-53.25210938 240.85837891 -53.81671875 240.32857422 -54.3984375 239.78271484 C-57.98595153 236.09080225 -60.20966341 231.73903775 -62.4375 227.13818359 C-62.87872192 226.24462158 -62.87872192 226.24462158 -63.32885742 225.33300781 C-68.03864055 215.07869285 -67.98339949 204.12384952 -67.9621582 193.04125977 C-67.96651484 191.5254237 -67.97170113 190.00958983 -67.97764587 188.49375916 C-67.99094587 184.40679884 -67.99162459 180.3199315 -67.98908257 176.23295379 C-67.98800657 172.80644637 -67.99291229 169.37995729 -67.997688 165.95345384 C-68.00875239 157.86128903 -68.00923813 149.76917065 -68.00317383 141.67700195 C-67.99713825 133.36262393 -68.00944155 125.04841532 -68.0307439 116.73406619 C-68.04842804 109.56509654 -68.05435051 102.39618047 -68.05110615 95.22718984 C-68.04930375 90.95899644 -68.05182411 86.69092387 -68.06582069 82.42275047 C-68.07850574 78.40477497 -68.07635546 74.38706117 -68.06340981 70.36908913 C-68.06106738 68.90591972 -68.06369344 67.44273126 -68.07203293 65.97958374 C-68.16823735 47.76827777 -64.87936928 32.06452436 -51.96484375 18.63427734 C-51.21332031 17.89306641 -50.46179688 17.15185547 -49.6875 16.38818359 C-49.04941406 15.73978516 -48.41132812 15.09138672 -47.75390625 14.42333984 C-34.53885148 1.86766411 -17.46633499 -0.08018003 0 0 Z " fill="#252236" transform="translate(91.6875,3.61181640625)"/>
<path d="M0 0 C3.2899667 2.74163892 5.28416819 5.60740429 7.625 9.1875 C8.12 2.7525 8.12 2.7525 8.625 -3.8125 C16.875 -3.8125 25.125 -3.8125 33.625 -3.8125 C33.71554542 8.53162671 33.78885704 20.87553108 33.83224869 33.21991539 C33.85307964 38.95256309 33.88131532 44.68497084 33.92675781 50.41748047 C33.97037556 55.95476245 33.99417087 61.49181432 34.00450897 67.02925491 C34.01187177 69.13667037 34.02624938 71.24407394 34.04792023 73.35139084 C34.07716578 76.31444788 34.08094717 79.27656682 34.07910156 82.23974609 C34.09348267 83.10146423 34.10786377 83.96318237 34.12268066 84.85101318 C34.06562015 93.37591683 31.33850419 101.30393382 25.44921875 107.59375 C12.5268342 118.88354207 -3.02070038 119.84101847 -19.375 119.1875 C-22.80991628 118.78607552 -26.04551412 118.11041012 -29.375 117.1875 C-30.50808594 116.91292969 -30.50808594 116.91292969 -31.6640625 116.6328125 C-39.51917299 114.44633845 -47.11824966 109.22751018 -51.375 102.1875 C-51.9442364 100.47620962 -52.47519197 98.75192047 -52.9765625 97.01953125 C-53.24033691 96.11565674 -53.50411133 95.21178223 -53.77587891 94.28051758 C-53.97358887 93.58982178 -54.17129883 92.89912598 -54.375 92.1875 C-50.31287788 92.04202455 -46.25142713 91.95336774 -42.1875 91.875 C-41.03701172 91.83310547 -39.88652344 91.79121094 -38.70117188 91.74804688 C-30.1082762 91.62351216 -30.1082762 91.62351216 -26.26171875 94.58203125 C-25.32779297 95.87173828 -25.32779297 95.87173828 -24.375 97.1875 C-19.07959123 100.71777251 -12.59933907 100.77728509 -6.375 100.1875 C-1.43598619 99.00283355 2.47203714 97.31060528 5.625 93.1875 C7.78985014 88.94284741 7.8660454 85.03913245 7.75 80.375 C7.74097656 79.68212891 7.73195313 78.98925781 7.72265625 78.27539062 C7.69926157 76.57927605 7.66339641 74.88334129 7.625 73.1875 C7.15191406 73.71859375 6.67882812 74.2496875 6.19140625 74.796875 C5.53011719 75.50328125 4.86882812 76.2096875 4.1875 76.9375 C3.54941406 77.63359375 2.91132812 78.3296875 2.25390625 79.046875 C-4.60823231 84.63447074 -11.56869123 85.91550877 -20.25 85.8125 C-21.22018066 85.803396 -22.19036133 85.79429199 -23.18994141 85.78491211 C-33.37591525 85.45691245 -39.56955384 82.27904746 -46.75 75.125 C-55.11232309 65.01122526 -56.55489186 52.96646797 -56.5625 40.375 C-56.57474609 39.31990234 -56.58699219 38.26480469 -56.59960938 37.17773438 C-56.62451764 23.85181049 -52.91495778 11.85465722 -43.375 2.1875 C-29.66653081 -8.27834597 -14.90141655 -8.00261259 0 0 Z " fill="#FCFCFC" transform="translate(95.375,96.8125)"/>
<path d="M0 0 C6.3068549 4.29666399 9.95667597 9.3173711 12.17578125 16.5859375 C12.5859375 18.76171875 12.5859375 18.76171875 12.5859375 23.76171875 C4.6659375 23.76171875 -3.2540625 23.76171875 -11.4140625 23.76171875 C-12.0740625 21.78171875 -12.7340625 19.80171875 -13.4140625 17.76171875 C-18.30331274 13.12319929 -22.38139074 12.42673237 -28.8984375 12.46484375 C-33.02179992 12.95145174 -35.49139071 14.83904696 -38.4140625 17.76171875 C-38.69245125 20.8935922 -38.80950059 23.03400281 -37.2890625 25.83203125 C-34.7801199 28.41415135 -32.63442462 28.90908901 -29.1640625 29.82421875 C-27.91753906 30.15550781 -26.67101562 30.48679688 -25.38671875 30.828125 C-21.48097348 31.77874499 -17.55286174 32.52408973 -13.6015625 33.26171875 C-2.47545476 35.39691578 6.69481707 39.50792846 13.5859375 48.76171875 C16.15599867 56.47190227 15.30241067 65.23732346 11.90234375 72.546875 C6.92039776 80.92896216 -0.92022445 85.05940273 -10.01953125 87.87890625 C-15.24607067 89.11549628 -20.44236686 89.09171448 -25.7890625 89.07421875 C-27.25472656 89.09838867 -27.25472656 89.09838867 -28.75 89.12304688 C-40.03901041 89.13055287 -51.07618568 86.08625267 -59.26953125 77.91015625 C-63.48215366 72.68858477 -66.4140625 66.55077113 -66.4140625 59.76171875 C-58.1640625 59.76171875 -49.9140625 59.76171875 -41.4140625 59.76171875 C-40.4240625 61.74171875 -39.4340625 63.72171875 -38.4140625 65.76171875 C-33.93818172 69.63866872 -30.69900575 70.26653081 -24.8515625 70.13671875 C-23.57152344 70.12382812 -22.29148438 70.1109375 -20.97265625 70.09765625 C-17.68305928 69.78711252 -15.3704288 69.18032062 -12.4140625 67.76171875 C-12.24604199 66.30354078 -12.07969107 64.84517035 -11.9140625 63.38671875 C-11.82125 62.57460937 -11.7284375 61.7625 -11.6328125 60.92578125 C-11.38053899 58.7925905 -11.38053899 58.7925905 -11.4140625 56.76171875 C-13.06945208 56.06752312 -14.74042273 55.41068111 -16.4140625 54.76171875 C-16.99929687 54.53226563 -17.58453125 54.3028125 -18.1875 54.06640625 C-23.16149933 52.25594672 -28.14538933 51.22118739 -33.3515625 50.32421875 C-43.91543985 48.46194969 -53.79845885 45.5000368 -60.7265625 36.88671875 C-64.33988807 30.1953751 -65.74029182 23.06663602 -63.87890625 15.62109375 C-60.91919502 7.14629218 -56.34372003 1.93003017 -48.4140625 -2.23828125 C-45.12734288 -3.47982395 -41.8279577 -4.41871055 -38.4140625 -5.23828125 C-37.82625 -5.42390625 -37.2384375 -5.60953125 -36.6328125 -5.80078125 C-24.067811 -8.27838718 -10.99529767 -6.36002512 0 0 Z " fill="#FBFBFB" transform="translate(209.4140625,97.23828125)"/>
<path d="M0 0 C6.23747097 3.58077037 9.91287818 8.43400141 11.91015625 15.34765625 C13.55258086 24.49830763 13.13338988 33.9914216 8.5625 42.1875 C5.02301872 46.63713361 0.82944957 50.37938315 -4.921875 51.30859375 C-11.48023201 51.48612889 -15.5954414 50.18701132 -20.625 45.9375 C-27.03416484 39.19101069 -27.9148775 31.20003849 -27.77734375 22.19921875 C-27.31063536 15.27039426 -25.25662692 8.14626625 -19.9140625 3.42578125 C-13.53574153 -1.27049305 -7.62750819 -2.23564895 0 0 Z " fill="#282539" transform="translate(91.625,113.0625)"/>
<path d="M0 0 C4.40114139 2.24261982 6.44866522 4.67477745 7.96484375 9.3125 C8.66807125 13.7076719 8.34708304 16.54802143 6.33984375 20.5625 C3.24853651 24.14190839 0.60275885 26.84837849 -4.2109375 27.6953125 C-9.60698249 27.967382 -12.87879386 26.97405734 -17.03515625 23.3125 C-20.61747592 19.37194836 -20.59474728 15.0858271 -20.45703125 9.9765625 C-19.78507245 5.73326708 -18.22919915 4.14358348 -15.03515625 1.3125 C-10.31811403 -1.4867304 -5.19738293 -1.7557378 0 0 Z " fill="#FAF9FA" transform="translate(258.03515625,158.6875)"/>
<path d="M0 0 C0 4.95 0 9.9 0 15 C-4 10 -4 10 -5.0625 7.75 C-5.93497944 5.64005363 -5.93497944 5.64005363 -9 5 C-8.4225 4.731875 -7.845 4.46375 -7.25 4.1875 C-5.12291127 3.06486984 -2.34348153 0 0 0 Z " fill="#353341" transform="translate(104,93)"/>
<path d="M0 0 C3.10652645 0.3358407 4.60414303 0.59049279 6.8125 2.875 C8 5 8 5 8 8 C4.27566618 6.7874262 0.62197194 5.49140021 -3 4 C-2.01 2.68 -1.02 1.36 0 0 Z " fill="#2F2C3C" transform="translate(206,129)"/>
<path d="M0 0 C2 2 2 2 2.4375 4.8125 C1.86588806 8.97710129 0.13624593 10.33419096 -3 13 C-4.23593906 9.29218282 -3.56984348 8.47018032 -2 5 C-1.62875 4.071875 -1.2575 3.14375 -0.875 2.1875 C-0.58625 1.465625 -0.2975 0.74375 0 0 Z " fill="#383643" transform="translate(197,154)"/>
<path d="M0 0 C0.625 3.0625 0.625 3.0625 1 6 C-2.3 5.01 -5.6 4.02 -9 3 C-6.40821726 0.40821726 -3.54324677 -1.77162338 0 0 Z " fill="#393647" transform="translate(205,90)"/>
<path d="M0 0 C-0.33 0.99 -0.66 1.98 -1 3 C-3.43276386 4.18519265 -5.28017286 5 -8 5 C-9.62514468 6.45833358 -9.62514468 6.45833358 -11 8 C-11.99 7.34 -12.98 6.68 -14 6 C-12.04414675 4.99515796 -10.08523763 3.99626195 -8.125 3 C-6.48917969 2.1646875 -6.48917969 2.1646875 -4.8203125 1.3125 C-2 0 -2 0 0 0 Z " fill="#211532" transform="translate(64,7)"/>
<path d="M0 0 C0.99 0 1.98 0 3 0 C2.67 0.99 2.34 1.98 2 3 C2.99 3.33 3.98 3.66 5 4 C5 4.66 5 5.32 5 6 C4.34 6 3.68 6 3 6 C2.67 6.66 2.34 7.32 2 8 C0.23537317 4.91190305 0 3.76687864 0 0 Z " fill="#2D2B3A" transform="translate(168,155)"/>
</svg>
